REM DIRINDEX 1\5,1\2\6,1\2\7,1\3\8,1\3\9,1\4\10,1\4\11,1\4\12
REM DIRNAME cjc026,folder01,folder02,folder03,folder04,folder05,folder06,folder07,folder08,folder09,folder10,folder11
TITLE ""
FILE "EJE_DB3000_5th_2A_30.mp3" MP3
  TRACK 01 AUDIO
    TITLE "0:"
    INDEX 01 00:00:00
  TRACK 02 AUDIO
    TITLE "10:cjc026_07689"
    INDEX 01 00:00:08
  TRACK 03 AUDIO
    TITLE "0:"
    INDEX 01 00:01:14
  TRACK 04 AUDIO
    TITLE "11:cjc026_07690"
    INDEX 01 00:01:49
  TRACK 05 AUDIO
    TITLE "0:"
    INDEX 01 00:02:68
  TRACK 06 AUDIO
    TITLE "12:cjc026_07691"
    INDEX 01 00:03:28
  TRACK 07 AUDIO
    TITLE "0:"
    INDEX 01 00:04:37
  TRACK 08 AUDIO
    TITLE "10:cjc026_07692"
    INDEX 01 00:04:69
  TRACK 09 AUDIO
    TITLE "0:"
    INDEX 01 00:06:17
  TRACK 10 AUDIO
    TITLE "11:cjc026_07693"
    INDEX 01 00:06:52
  TRACK 11 AUDIO
    TITLE "0:"
    INDEX 01 00:08:04
  TRACK 12 AUDIO
    TITLE "12:cjc026_07694"
    INDEX 01 00:08:39
  TRACK 13 AUDIO
    TITLE "0:"
    INDEX 01 00:09:59
  TRACK 14 AUDIO
    TITLE "10:cjc026_07695"
    INDEX 01 00:10:19
  TRACK 15 AUDIO
    TITLE "0:"
    INDEX 01 00:11:39
  TRACK 16 AUDIO
    TITLE "11:cjc026_07696"
    INDEX 01 00:11:68
  TRACK 17 AUDIO
    TITLE "0:"
    INDEX 01 00:13:72
  TRACK 18 AUDIO
    TITLE "12:cjc026_07697"
    INDEX 01 00:14:32
  TRACK 19 AUDIO
    TITLE "0:"
    INDEX 01 00:15:46
  TRACK 20 AUDIO
    TITLE "10:cjc026_07698"
    INDEX 01 00:16:06
  TRACK 21 AUDIO
    TITLE "0:"
    INDEX 01 00:17:12
  TRACK 22 AUDIO
    TITLE "11:cjc026_07699"
    INDEX 01 00:17:50
  TRACK 23 AUDIO
    TITLE "0:"
    INDEX 01 00:19:14
  TRACK 24 AUDIO
    TITLE "12:cjc026_07700"
    INDEX 01 00:19:46
  TRACK 25 AUDIO
    TITLE "0:"
    INDEX 01 00:20:52
  TRACK 26 AUDIO
    TITLE "10:cjc026_07701"
    INDEX 01 00:21:18
  TRACK 27 AUDIO
    TITLE "0:"
    INDEX 01 00:22:34
  TRACK 28 AUDIO
    TITLE "11:cjc026_07702"
    INDEX 01 00:22:69
  TRACK 29 AUDIO
    TITLE "0:"
    INDEX 01 00:24:65
  TRACK 30 AUDIO
    TITLE "12:cjc026_07703"
    INDEX 01 00:25:28
  TRACK 31 AUDIO
    TITLE "0:"
    INDEX 01 00:26:45
  TRACK 32 AUDIO
    TITLE "10:cjc026_07704"
    INDEX 01 00:27:05
  TRACK 33 AUDIO
    TITLE "0:"
    INDEX 01 00:29:52
  TRACK 34 AUDIO
    TITLE "11:cjc026_07705"
    INDEX 01 00:30:12
  TRACK 35 AUDIO
    TITLE "0:"
    INDEX 01 00:32:43
  TRACK 36 AUDIO
    TITLE "12:cjc026_07706"
    INDEX 01 00:33:03
  TRACK 37 AUDIO
    TITLE "0:"
    INDEX 01 00:35:50
  TRACK 38 AUDIO
    TITLE "10:cjc026_07707"
    INDEX 01 00:36:10
  TRACK 39 AUDIO
    TITLE "0:"
    INDEX 01 00:37:33
  TRACK 40 AUDIO
    TITLE "11:cjc026_07708"
    INDEX 01 00:37:68
  TRACK 41 AUDIO
    TITLE "0:"
    INDEX 01 00:39:39
  TRACK 42 AUDIO
    TITLE "12:cjc026_07709"
    INDEX 01 00:39:74
  TRACK 43 AUDIO
    TITLE "0:"
    INDEX 01 00:41:24
  TRACK 44 AUDIO
    TITLE "10:cjc026_07710"
    INDEX 01 00:41:57
  TRACK 45 AUDIO
    TITLE "0:"
    INDEX 01 00:43:01
  TRACK 46 AUDIO
    TITLE "11:cjc026_07711"
    INDEX 01 00:43:36
  TRACK 47 AUDIO
    TITLE "0:"
    INDEX 01 00:45:16
  TRACK 48 AUDIO
    TITLE "12:cjc026_07712"
    INDEX 01 00:45:51
  TRACK 49 AUDIO
    TITLE "0:"
    INDEX 01 00:46:68
  TRACK 50 AUDIO
    TITLE "10:cjc026_07713"
    INDEX 01 00:47:30
  TRACK 51 AUDIO
    TITLE "0:"
    INDEX 01 00:48:47
  TRACK 52 AUDIO
    TITLE "11:cjc026_07714"
    INDEX 01 00:49:10
  TRACK 53 AUDIO
    TITLE "0:"
    INDEX 01 00:50:51
  TRACK 54 AUDIO
    TITLE "12:cjc026_07715"
    INDEX 01 00:51:14
  TRACK 55 AUDIO
    TITLE "0:"
    INDEX 01 00:52:31
  TRACK 56 AUDIO
    TITLE "10:cjc026_07716"
    INDEX 01 00:52:69
  TRACK 57 AUDIO
    TITLE "0:"
    INDEX 01 00:54:08
  TRACK 58 AUDIO
    TITLE "11:cjc026_07717"
    INDEX 01 00:54:43
  TRACK 59 AUDIO
    TITLE "0:"
    INDEX 01 00:56:17
  TRACK 60 AUDIO
    TITLE "12:cjc026_07718"
    INDEX 01 00:56:55
  TRACK 61 AUDIO
    TITLE "0:"
    INDEX 01 00:57:69
  TRACK 62 AUDIO
    TITLE "10:cjc026_07719"
    INDEX 01 00:58:32
  TRACK 63 AUDIO
    TITLE "0:"
    INDEX 01 00:59:35
  TRACK 64 AUDIO
    TITLE "11:cjc026_07720"
    INDEX 01 01:00:03
  TRACK 65 AUDIO
    TITLE "0:"
    INDEX 01 01:01:47
  TRACK 66 AUDIO
    TITLE "12:cjc026_07721"
    INDEX 01 01:02:10
  TRACK 67 AUDIO
    TITLE "0:"
    INDEX 01 01:03:13
  TRACK 68 AUDIO
    TITLE "10:cjc026_07722"
    INDEX 01 01:03:59
  TRACK 69 AUDIO
    TITLE "0:"
    INDEX 01 01:05:06
  TRACK 70 AUDIO
    TITLE "11:cjc026_07723"
    INDEX 01 01:05:44
  TRACK 71 AUDIO
    TITLE "0:"
    INDEX 01 01:07:13
  TRACK 72 AUDIO
    TITLE "12:cjc026_07724"
    INDEX 01 01:07:48
  TRACK 73 AUDIO
    TITLE "0:"
    INDEX 01 01:08:70
